<svg width="22" height="22" viewBox="0 0 22 22" fill="none" xmlns="http://www.w3.org/2000/svg">
<path d="M19.9806 0.990242C19.7208 0.997983 19.4742 1.10656 19.2931 1.29298L13.0001 7.58595V3.00001C13.0019 2.8663 12.9769 2.73359 12.9266 2.60971C12.8762 2.48584 12.8015 2.37332 12.7069 2.27881C12.6123 2.1843 12.4997 2.10973 12.3758 2.05949C12.2519 2.00925 12.1191 1.98438 11.9854 1.98634C11.7204 1.99022 11.4677 2.09917 11.283 2.28924C11.0982 2.47931 10.9965 2.73496 11.0001 3.00001V10C11.0001 10.2652 11.1055 10.5196 11.293 10.7071C11.4805 10.8946 11.7349 11 12.0001 11H19.0001C19.1326 11.0019 19.2642 10.9774 19.3871 10.928C19.5101 10.8786 19.622 10.8052 19.7164 10.7122C19.8108 10.6191 19.8857 10.5083 19.9368 10.386C19.988 10.2637 20.0143 10.1325 20.0143 10C20.0143 9.86748 19.988 9.73628 19.9368 9.61402C19.8857 9.49176 19.8108 9.38089 19.7164 9.28785C19.622 9.1948 19.5101 9.12144 19.3871 9.07203C19.2642 9.02261 19.1326 8.99813 19.0001 9.00001H14.4141L20.7071 2.70704C20.8516 2.56658 20.9503 2.38574 20.9903 2.18822C21.0302 1.9907 21.0096 1.78571 20.9311 1.60013C20.8525 1.41454 20.7197 1.25701 20.5501 1.14818C20.3805 1.03935 20.182 0.984302 19.9806 0.990242ZM2.50008 11.5C2.36757 11.4981 2.23601 11.5226 2.11304 11.572C1.99007 11.6214 1.87815 11.6948 1.78378 11.7878C1.68941 11.8809 1.61448 11.9918 1.56333 12.114C1.51218 12.2363 1.48584 12.3675 1.48584 12.5C1.48584 12.6325 1.51218 12.7637 1.56333 12.886C1.61448 13.0083 1.68941 13.1191 1.78378 13.2122C1.87815 13.3052 1.99007 13.3786 2.11304 13.428C2.23601 13.4774 2.36757 13.5019 2.50008 13.5H7.08602L1.29305 19.293C1.19708 19.3851 1.12046 19.4955 1.06767 19.6176C1.01489 19.7397 0.987001 19.8712 0.985647 20.0042C0.984294 20.1373 1.0095 20.2692 1.05979 20.3924C1.11008 20.5156 1.18444 20.6275 1.27852 20.7216C1.3726 20.8157 1.4845 20.89 1.60768 20.9403C1.73086 20.9906 1.86283 21.0158 1.99587 21.0144C2.12891 21.0131 2.26034 20.9852 2.38247 20.9324C2.5046 20.8796 2.61497 20.803 2.70711 20.707L8.50008 14.9141V19.5C8.49821 19.6325 8.52269 19.7641 8.57211 19.8871C8.62152 20.01 8.69488 20.1219 8.78792 20.2163C8.88097 20.3107 8.99184 20.3856 9.1141 20.4368C9.23636 20.4879 9.36756 20.5142 9.50008 20.5142C9.63261 20.5142 9.76381 20.4879 9.88607 20.4368C10.0083 20.3856 10.1192 20.3107 10.2122 20.2163C10.3053 20.1219 10.3787 20.01 10.4281 19.8871C10.4775 19.7641 10.502 19.6325 10.5001 19.5V12.5C10.5001 12.2348 10.3947 11.9805 10.2072 11.7929C10.0196 11.6054 9.76529 11.5 9.50008 11.5H2.50008Z" fill="#637394"/>
</svg>
