<svg width="30" height="30" viewBox="0 0 30 30" fill="none" xmlns="http://www.w3.org/2000/svg">
<path d="M6.46466 27.2089C8.03032 20.7151 6.17173 20.4929 6.17173 17.3419C6.17173 16.2915 7.00002 13.7768 7.12123 12.5548C7.40406 9.74716 6.70709 10.4945 8.7576 8.41405L8.87881 5.52563C9.90911 4.5359 10.4243 3.64715 11.6869 3.96023C12.4546 6.24269 11 5.52563 10.8586 8.19186C11.7172 9.33309 12.293 9.44418 12.9394 10.8783C13.7576 12.6962 13.1717 12.676 14.7172 14.201C16.9899 14.4636 18.3637 14.4737 19.9899 12.8376C20.1617 11.0904 19.1516 11.2419 20.1819 9.63607C20.8889 8.53524 21.5859 7.93938 22.9091 8.38375C23.3435 10.1006 21.394 10.4541 22.0001 12.3629C24.6162 12.6255 25.2223 9.02001 27.2223 8.83822C27.2223 12.6861 23.2021 13.191 23.1112 16.3218C23.0506 18.2811 24.7879 23.6742 26.5455 24.8255C28.091 22.4521 29.7576 19.8667 29.9496 16.9985C31.293 -2.57405 5.39395 -6.13912 0.474749 10.9995C0.222223 11.8781 0.0707072 12.7669 0 13.6556V15.928C0.434344 21.5634 3.9091 26.5121 6.46466 27.2089Z" fill="#637394"/>
<path d="M14.0404 29.8348C21.0405 30.6629 20.3031 28.5017 18.9192 20.5333C18.3738 17.3924 17.7374 15.7361 14.0101 16.029C11.6869 18.7861 12.8586 24.1589 12.9394 26.5121C13 28.3704 12.6869 28.4916 14.0404 29.8348ZM22.091 27.9159C23.2627 27.7745 23.4647 27.5321 24.4142 26.7747C24.5657 25.1689 23.4647 22.5834 21.7475 22.0684C20.9394 23.6237 21.1718 26.3909 22.091 27.9159ZM10.5556 29.249C10.5556 27.2897 10.798 23.2399 9.7879 21.8462C8.44446 22.2401 8.85861 23.3914 8.84851 25.8455C8.8384 27.6432 8.50507 29.0672 10.5556 29.249Z" fill="#637394"/>
</svg>
