<svg width="40" height="18" viewBox="0 0 40 18" fill="none" xmlns="http://www.w3.org/2000/svg">
<path d="M7.98701 0.268188C7.31901 0.300188 6.49547 0.725543 6.02347 1.32288C5.59147 1.83888 5.2218 2.67556 5.31513 3.4609C6.0698 3.52623 6.82624 3.06827 7.2969 2.48694C7.7609 1.88827 8.06567 1.08686 7.98701 0.268188ZM14.4011 1.86715V13.8671H16.2995V9.86715H18.9011C21.2877 9.86715 23 8.20715 23 5.86715C23 3.52715 21.3182 1.86715 18.9636 1.86715H14.4011ZM16.2995 3.46611H18.5C20.1374 3.46611 21.099 4.35115 21.099 5.86715C21.099 7.38315 20.1454 8.26559 18.5 8.26559H16.2995V3.46611ZM7.90107 3.86715C6.80107 3.86715 6.01336 4.46611 5.50003 4.46611C4.97869 4.46611 4.19951 3.87236 3.29951 3.87236C2.19951 3.87236 1.12272 4.56361 0.554716 5.57027C-0.611951 7.58227 0.252237 10.5618 1.38024 12.2005C1.93357 13.0111 2.60003 13.8671 3.50003 13.8671C4.32536 13.8365 4.60299 13.3671 5.59899 13.3671C6.60165 13.3671 6.89951 13.8671 7.79951 13.8671C8.69951 13.8671 9.2449 13.0424 9.7969 12.2317C10.4276 11.3117 10.6845 10.4138 10.7005 10.3671C10.6859 10.3525 8.95613 9.68867 8.94013 7.69267C8.92547 6.02333 10.3019 5.22758 10.3646 5.18225C9.58728 4.02758 8.30003 3.86715 8.00003 3.86715H7.90107ZM27.3594 5.06767C25.3687 5.06767 23.8984 6.18404 23.8438 7.71871H25.5313C25.6699 6.98938 26.362 6.51038 27.3073 6.51038C28.454 6.51038 29.1016 7.03463 29.1016 7.99996V8.66663L26.7578 8.79163C24.5805 8.92096 23.4037 9.79246 23.4037 11.3125C23.4037 12.8471 24.6193 13.8671 26.362 13.8671C27.5393 13.8671 28.633 13.2808 29.1276 12.3541H29.1667V13.776H30.9011V7.88017C30.8997 6.16817 29.5047 5.06767 27.3594 5.06767ZM31.599 5.06767L34.8073 13.8255L34.6354 14.3593C34.3461 15.262 33.8751 15.6093 33.0391 15.6093C32.8964 15.6093 32.6266 15.5954 32.5026 15.5807V17.0234C32.628 17.0514 33.0672 17.0677 33.2032 17.0677C35.0485 17.0677 35.9171 16.3723 36.6771 14.2656L40 5.06767H38.0755L35.8464 12.1744H35.8073L33.5782 5.06767H31.599ZM29.1016 9.86715L29.0938 10.5625C29.0938 11.6718 28.1339 12.4609 26.8646 12.4609C25.8659 12.4609 25.2292 11.9909 25.2292 11.2682C25.2292 10.5229 25.8424 10.0901 27.013 10.0208L29.1016 9.86715Z" fill="#637394"/>
</svg>
