<svg width="595" height="40" viewBox="0 0 595 40" fill="none" xmlns="http://www.w3.org/2000/svg">
<path d="M297.501 17C144.347 17 18.2565 23.2396 2.11154 31.2556C0.615318 31.9985 2.09499 32.9391 4.09111 32.8686C236.067 42.6796 365.749 42.0702 590.909 32.8673C592.905 32.9385 594.386 31.9979 592.889 31.2549C576.738 23.2392 450.65 17 297.501 17Z" fill="url(#paint0_linear_12_2609)"/>
<path d="M1.50049 32C17.6789 23.5654 144.03 17 297.501 17C450.967 17 577.316 23.565 593.5 31.9992" stroke="#253554" stroke-width="2" stroke-linecap="round"/>
<path d="M278.422 9C277.746 9 277.172 8.8855 276.702 8.65651C276.232 8.42013 275.831 8.11727 275.5 7.74792L276.603 6.62881C277.125 7.21976 277.768 7.51523 278.532 7.51523C278.943 7.51523 279.248 7.43029 279.447 7.26039C279.645 7.09049 279.744 6.86519 279.744 6.58449C279.744 6.37027 279.686 6.19298 279.568 6.05263C279.45 5.90489 279.212 5.80517 278.852 5.75346L278.091 5.65374C277.275 5.55032 276.676 5.30286 276.294 4.91136C275.919 4.51985 275.732 3.99908 275.732 3.34903C275.732 3.00185 275.798 2.68421 275.93 2.39612C276.063 2.10803 276.25 1.86057 276.493 1.65374C276.742 1.44691 277.044 1.28809 277.396 1.17729C277.757 1.0591 278.164 1 278.62 1C279.201 1 279.711 1.09234 280.152 1.27701C280.593 1.46168 280.972 1.7313 281.288 2.08587L280.174 3.21607C279.991 3.00185 279.766 2.82825 279.502 2.69529C279.245 2.55494 278.918 2.48476 278.521 2.48476C278.146 2.48476 277.867 2.55125 277.683 2.68421C277.499 2.81717 277.407 3.00185 277.407 3.23823C277.407 3.50415 277.477 3.69621 277.617 3.8144C277.764 3.93259 277.999 4.01754 278.322 4.06925L279.083 4.19114C279.877 4.31671 280.465 4.56417 280.847 4.93352C281.229 5.29548 281.42 5.81256 281.42 6.48476C281.42 6.85411 281.354 7.19391 281.221 7.50415C281.089 7.8144 280.894 8.08033 280.637 8.30194C280.387 8.52354 280.075 8.69714 279.7 8.82271C279.325 8.9409 278.899 9 278.422 9Z" fill="#637394"/>
<path d="M286.799 9C286.278 9 285.807 8.91874 285.388 8.75623C284.97 8.58633 284.613 8.33887 284.319 8.01385C284.025 7.68144 283.797 7.27147 283.636 6.78393C283.474 6.28901 283.393 5.71283 283.393 5.0554C283.393 4.40536 283.474 3.82918 283.636 3.32687C283.797 2.81717 284.025 2.39243 284.319 2.05263C284.613 1.70545 284.97 1.44321 285.388 1.26593C285.807 1.08864 286.278 1 286.799 1C287.512 1 288.1 1.14774 288.563 1.44321C289.026 1.7313 289.397 2.18929 289.676 2.81717L288.232 3.57064C288.13 3.24561 287.968 2.98707 287.747 2.79501C287.534 2.59557 287.218 2.49584 286.799 2.49584C286.307 2.49584 285.91 2.65836 285.609 2.98338C285.315 3.30102 285.168 3.76639 285.168 4.3795V5.6205C285.168 6.23361 285.315 6.70268 285.609 7.0277C285.91 7.34534 286.307 7.50415 286.799 7.50415C287.211 7.50415 287.538 7.39335 287.78 7.17174C288.03 6.94275 288.214 6.66944 288.332 6.3518L289.698 7.14958C289.412 7.74053 289.033 8.19852 288.563 8.52354C288.1 8.84118 287.512 9 286.799 9Z" fill="#637394"/>
<path d="M293.428 8.86704H291.753V1.13296H295.401C295.754 1.13296 296.074 1.19206 296.36 1.31025C296.647 1.42844 296.89 1.59834 297.088 1.81994C297.294 2.03416 297.452 2.29271 297.562 2.59557C297.672 2.89843 297.727 3.23453 297.727 3.60388C297.727 4.12835 297.61 4.58633 297.375 4.97784C297.147 5.36934 296.798 5.65374 296.327 5.83102L297.838 8.86704H295.975L294.63 6.03047H293.428V8.86704ZM295.192 4.61219C295.442 4.61219 295.637 4.5494 295.776 4.42382C295.923 4.29086 295.997 4.0988 295.997 3.84765V3.36011C295.997 3.10896 295.923 2.92059 295.776 2.79501C295.637 2.66205 295.442 2.59557 295.192 2.59557H293.428V4.61219H295.192Z" fill="#637394"/>
<path d="M300.062 8.86704V1.13296H305.298V2.62881H301.738V4.2133H304.791V5.69806H301.738V7.37119H305.298V8.86704H300.062Z" fill="#637394"/>
<path d="M307.64 8.86704V1.13296H312.876V2.62881H309.315V4.2133H312.369V5.69806H309.315V7.37119H312.876V8.86704H307.64Z" fill="#637394"/>
<path d="M317.565 5.21053L316.827 3.65928H316.794V8.86704H315.217V1.13296H317.047L319.153 4.78947L319.891 6.34072H319.924V1.13296H321.5V8.86704H319.671L317.565 5.21053Z" fill="#637394"/>
<defs>
<linearGradient id="paint0_linear_12_2609" x1="297.5" y1="17" x2="297.5" y2="40" gradientUnits="userSpaceOnUse">
<stop stop-color="#1F293D"/>
<stop offset="1" stop-color="#1F293D" stop-opacity="0"/>
</linearGradient>
</defs>
</svg>
