<svg width="13" height="16" viewBox="0 0 13 16" fill="none" xmlns="http://www.w3.org/2000/svg">
<path d="M7.01862 0.208003C6.72912 -0.0694971 6.27162 -0.0694971 5.98212 0.208003L0.232121 5.708C0.0106213 5.92 -0.0593785 6.245 0.0546215 6.5295C0.168622 6.814 0.443621 7 0.750121 7H12.2501C12.5561 7 12.8321 6.8135 12.9466 6.5295C13.0606 6.2455 12.9901 5.92 12.7691 5.708L7.01862 0.208003ZM12.2501 9H0.750121C0.443621 9 0.168121 9.1865 0.0541213 9.4705C-0.0598787 9.7545 0.0106216 10.08 0.231622 10.292L5.98162 15.792C6.12662 15.9305 6.31312 16 6.50012 16C6.68712 16 6.87362 15.9305 7.01862 15.792L12.7686 10.292C12.9896 10.08 13.0601 9.755 12.9461 9.4705C12.8321 9.1865 12.5561 9 12.2501 9Z" fill="#637394"/>
</svg>
