<svg width="36" height="28" viewBox="0 0 36 28" fill="none" xmlns="http://www.w3.org/2000/svg">
<path d="M3.33341 0.666626C1.86008 0.666626 0.666748 1.85996 0.666748 3.33329V8.73173H4.69539C5.79539 8.73173 6.21623 9.76298 6.21623 9.76298L7.15112 14.513C6.04446 10.9476 1.77875 9.21888 0.666748 8.82288V24.6666C0.666748 26.14 1.86008 27.3333 3.33341 27.3333H32.6667C34.1401 27.3333 35.3334 26.14 35.3334 24.6666V3.33329C35.3334 1.85996 34.1401 0.666626 32.6667 0.666626H3.33341ZM22.4923 8.49475C23.7803 8.49475 25.0964 9.01037 25.0964 9.01037L24.6459 11.3229C24.6459 11.3229 23.6188 10.6484 22.7188 10.6484C21.3375 10.6484 20.8542 11.099 20.8542 11.7057C20.8542 12.8937 24.711 13.086 24.711 15.75C24.7097 17.9633 21.9451 19.5052 19.9558 19.5052C17.9638 19.5052 16.935 18.8984 16.935 18.8984L17.4167 16.6796C17.4167 16.6796 18.478 17.289 20.086 17.289C21.6914 17.289 21.9141 16.6148 21.9141 16.3255C21.9141 14.6255 18.0626 15.0788 18.0626 11.7708C18.0626 9.94146 19.5709 8.49475 22.4923 8.49475ZM10.0287 8.70569H13.0027L8.77352 19.177H5.71102L3.48185 10.6979C3.48185 10.6979 5.83073 11.8874 7.27873 15.1328C7.34139 15.5274 7.48706 16.1614 7.48706 16.1614L10.0287 8.70569ZM14.099 8.70569H16.9115L15.2319 19.177H12.4532L14.099 8.70569ZM29.198 8.70569H32.1199L34.2709 19.177H31.7423L31.4428 17.6849H27.9662L27.3959 19.177H24.6355L29.198 8.70569ZM30.2475 11.7265L28.7371 15.6823H31.0391L30.2475 11.7265Z" fill="#637394"/>
</svg>
